<svg width="32" height="32" viewBox="0 0 32 32" fill="none" xmlns="http://www.w3.org/2000/svg">
<path d="M27.526 18.036L27 17.732C26.374 17.371 26 16.723 26 16C26 15.277 26.374 14.629 27 14.268L27.526 13.964C28.962 13.134 29.453 11.302 28.624 9.866L27.624 8.134C26.797 6.701 24.958 6.209 23.526 7.036L23 7.339C22.374 7.701 21.625 7.701 21 7.339C20.374 6.977 20 6.33 20 5.607V5C20 3.346 18.654 2 17 2H15C13.346 2 12 3.346 12 5V5.608C12 6.331 11.626 6.978 11 7.34C10.374 7.701 9.62599 7.702 8.99999 7.34L8.47399 7.036C7.04199 6.209 5.20299 6.701 4.37499 8.134L3.37499 9.866C2.54599 11.302 3.03699 13.135 4.47299 13.964L4.99999 14.268C5.62599 14.629 5.99999 15.277 5.99999 16C5.99999 16.723 5.62599 17.371 4.99999 17.732L4.47399 18.036C3.03799 18.865 2.54699 20.698 3.37599 22.134L4.37599 23.866C5.20399 25.299 7.04299 25.791 8.47399 24.964L8.99999 24.661C9.62599 24.298 10.374 24.3 11 24.661C11.626 25.023 12 25.67 12 26.393V27C12 28.654 13.346 30 15 30H17C18.654 30 20 28.654 20 27V26.392C20 25.669 20.374 25.022 21 24.66C21.625 24.299 22.374 24.298 23 24.66L23.526 24.964C24.958 25.79 26.797 25.298 27.624 23.866L28.624 22.134C29.453 20.698 28.962 18.865 27.526 18.036ZM16 21C13.243 21 11 18.757 11 16C11 13.243 13.243 11 16 11C18.757 11 21 13.243 21 16C21 18.757 18.757 21 16 21Z" fill="white"/>
</svg>
